<?xml version="1.0" encoding="utf-8"?>
<!-- Generator: Adobe Illustrator 23.0.6, SVG Export Plug-In . SVG Version: 6.00 Build 0)  -->
<svg version="1.1" id="Layer_1" xmlns="http://www.w3.org/2000/svg" xmlns:xlink="http://www.w3.org/1999/xlink" x="0px" y="0px"
	 viewBox="0 0 24 24" style="enable-background:new 0 0 24 24;" xml:space="preserve">
<style type="text/css">
	.st0{fill:#85A450;}
	.st1{fill:none;}
</style>
<path class="st0" d="M12,6v3l4-4l-4-4v3c-4.4,0-8,3.6-8,8c0,1.6,0.5,3,1.2,4.3l1.5-1.5C6.2,14,6,13,6,12C6,8.7,8.7,6,12,6z
	 M18.8,7.7l-1.5,1.5C17.7,10,18,11,18,12c0,3.3-2.7,6-6,6v-3l-4,4l4,4v-3c4.4,0,8-3.6,8-8C20,10.4,19.5,9,18.8,7.7z"/>
<path class="st1" d="M0,0h24v24H0V0z"/>
</svg>
