<?xml version="1.0" encoding="utf-8"?>
<!-- Generator: Adobe Illustrator 23.0.6, SVG Export Plug-In . SVG Version: 6.00 Build 0)  -->
<svg version="1.1" id="Layer_1" xmlns="http://www.w3.org/2000/svg" xmlns:xlink="http://www.w3.org/1999/xlink" x="0px" y="0px"
	 viewBox="0 0 24 24" style="enable-background:new 0 0 24 24;" xml:space="preserve">
<style type="text/css">
	.st0{fill:#85A450;}
</style>
<path class="st0" d="M23,18h-1V5c0-1.1-0.9-2-2-2H4C2.9,3,2,3.9,2,5v13H1c-0.6,0-1,0.5-1,1s0.4,1,1,1h22c0.5,0,1-0.5,1-1
	S23.5,18,23,18z M13.5,18h-3c-0.3,0-0.5-0.2-0.5-0.5s0.2-0.5,0.5-0.5h3c0.3,0,0.5,0.2,0.5,0.5S13.8,18,13.5,18z M20,15H4V6
	c0-0.6,0.4-1,1-1h14c0.5,0,1,0.4,1,1V15z"/>
</svg>
